<svg width="198" height="196" viewBox="0 0 198 196" fill="none" xmlns="http://www.w3.org/2000/svg">
<g clip-path="url(#clip0)">
<path d="M197.579 0H0.579102V196H197.579V0Z" fill="#C98F6B"/>
<path d="M197.579 55.4223V196H101.441L8.70952 164.518L8.27004 164.299H8.05029L22.3336 122.65C23.3225 122.104 24.4212 121.667 25.5199 121.229C26.5087 120.792 27.4976 120.464 28.3766 120.027C33.5405 117.95 38.5946 115.764 43.7586 113.577C44.308 113.359 44.6376 113.031 44.9672 112.703C46.6153 110.735 48.593 109.095 50.7904 107.784C51.5595 107.346 51.8891 106.8 51.8891 105.816C51.7792 105.051 51.7792 104.286 51.8891 103.411C52.1089 101.225 51.5595 99.1479 50.3509 97.1802C49.0324 94.994 48.7028 92.4797 48.593 89.9655C48.593 89.8562 48.593 89.8562 48.593 89.8562C48.593 89.091 48.3732 88.6537 47.714 89.2003C47.6041 89.3096 47.4942 89.4189 47.3844 89.5283C46.6153 90.1841 45.8462 89.9655 45.4067 88.9817C44.9672 87.7792 44.4178 86.6861 44.0882 85.4836C43.5389 83.7346 42.9895 81.9856 42.7698 80.1272C42.55 78.7062 42.0007 77.2851 41.5612 75.864C40.7921 73.5684 41.1217 72.6939 43.429 71.9287C44.308 71.7101 43.9783 71.2728 43.7586 70.7262C42.8796 68.8679 42.4401 66.9003 42.3303 64.9326L49.3621 44.4909C49.8016 43.9443 50.3509 43.507 50.9003 42.9605L61.448 37.7134C62.9862 37.3855 64.5244 37.0575 66.1724 36.8389C68.1501 36.6203 70.1278 36.511 72.1055 36.511H72.2154C72.9845 36.511 73.7536 36.511 74.5227 36.6203C74.7424 36.6203 75.0721 36.7296 75.2918 36.511C75.2918 36.511 75.2918 36.4016 75.4017 36.4016C75.5115 35.9644 75.072 35.8551 74.8523 35.6364C74.4128 35.1992 73.7536 35.4178 73.2042 35.1992C73.9733 34.9806 74.7424 34.9806 75.7313 35.0899C77.4892 35.4178 79.6867 36.183 82.1038 37.6041C82.2137 37.0575 81.8841 36.6203 81.5545 36.183C81.3347 35.8551 81.115 35.6364 81.0051 35.1992L81.115 35.3085C82.3236 36.0737 83.4223 36.8389 84.3013 37.6041C85.2901 38.4786 86.0592 39.4624 86.3888 40.7742C86.6086 41.3208 86.8283 41.4301 87.3777 41.4301C89.2455 41.4301 90.8936 42.1953 92.212 43.3977C92.5417 43.6164 94.1897 43.7257 92.9811 44.9281C92.9811 44.9281 93.3108 45.2561 93.5305 45.4747C94.9588 46.8958 95.5082 48.7541 95.5082 50.8311C95.1786 50.6125 94.849 50.5031 94.2996 50.2845C96.3872 54.0012 96.497 57.7179 96.1674 61.5439C95.8378 65.3699 94.7391 68.8679 93.5305 72.4753C93.4206 72.6939 93.3108 72.9125 93.5305 73.0218H93.6404C94.6292 72.4753 95.2884 72.2566 95.7279 72.3659C95.9477 72.4753 96.0575 72.5846 96.2773 72.8032C96.497 73.1311 96.7168 73.787 96.8266 74.6615C97.0464 76.0826 96.9365 77.5037 96.1674 78.9248C95.2884 80.4552 94.9588 82.2042 94.2996 83.9532C93.7502 85.4836 93.091 87.1233 92.3219 88.6537C91.9923 89.4189 91.5528 90.4028 90.2343 89.8562C89.685 89.5282 89.7949 90.1841 89.685 90.5121C89.1356 93.0263 89.0258 95.6498 87.3777 97.8361C86.0592 99.4758 86.1691 101.334 86.1691 103.193C86.279 104.723 86.1691 106.253 86.279 107.784C86.279 108.221 86.279 108.768 86.9382 108.986C89.4652 109.861 91.4429 111.719 93.091 113.687C94.1897 114.998 95.7279 115.108 97.1563 115.654C100.562 117.075 104.078 118.387 107.484 119.918C107.814 119.808 108.253 119.59 108.583 119.48C109.462 119.152 110.451 118.715 111.33 118.387C112.209 118.059 112.538 117.075 113.198 116.419C114.516 115.108 115.834 114.015 117.483 113.14C118.581 112.594 117.922 111.391 117.922 110.407C117.922 109.642 117.263 109.861 116.823 109.861C113.527 109.751 113.527 109.751 113.417 106.363C113.417 105.16 113.307 103.958 113.307 102.755C113.307 102.537 113.307 102.318 113.307 102.209C113.307 101.662 113.198 101.116 112.428 100.678C112.538 102.209 112.319 103.52 112.099 104.942C111.989 105.925 111.769 106.8 111.769 107.784C111.769 109.314 111.659 109.533 110.121 109.533C110.011 109.533 109.792 109.533 109.682 109.533C106.166 109.314 102.65 108.768 99.2438 107.784C97.9254 107.456 96.6069 106.909 95.2884 106.581C94.6292 106.363 94.1897 106.035 94.5193 105.269C94.849 105.16 95.1786 105.051 95.1786 104.614C95.2884 104.614 95.3983 104.614 95.2884 104.395L95.1786 104.504C94.849 104.504 94.5193 104.614 94.4095 104.942C93.2009 105.488 92.212 105.051 91.2232 104.286C90.564 103.739 90.6738 103.411 91.2232 102.974C93.7502 100.569 95.1786 97.5082 96.0575 94.2287C96.9365 91.0586 97.9254 87.8885 98.6945 84.6091C99.7932 79.9086 100.343 75.0988 100.782 70.289C101.222 66.0257 101.222 61.6532 102.76 57.4992C104.737 52.0335 106.605 46.4585 111 42.3046C112.648 40.7742 114.626 39.6811 117.153 40.4463C117.592 40.5556 118.032 40.4463 118.252 40.1183C121.877 36.6203 126.382 35.5271 131.217 35.3085C134.403 35.1992 137.589 35.4178 140.665 36.183L148.247 38.8065L197.579 55.4223Z" fill="#9F6D4C"/>
<path d="M186.152 163.424C186.042 164.408 185.713 164.517 184.834 164.517C167.254 164.517 149.565 164.517 131.986 164.517H131.876C131.107 164.517 130.447 164.517 129.678 164.517C128.47 164.517 127.371 164.517 126.162 164.517H121.658H118.471C118.032 164.517 117.702 164.517 117.263 164.517H117.043H80.6755C80.4557 164.517 80.3458 164.517 80.236 164.517H80.1261C80.0162 164.517 79.7965 164.408 79.6866 164.408C79.5767 164.408 79.5767 164.299 79.4669 164.19C79.2471 163.971 79.2471 163.643 79.2471 163.096C79.2471 156.865 79.4669 150.635 79.2471 144.294C79.1372 140.14 80.7853 136.97 83.3124 134.019C87.1579 129.537 92.1021 126.695 97.2661 124.181C99.024 123.306 100.782 122.541 102.54 121.776C104.078 121.12 105.616 120.464 107.155 119.808C107.484 119.699 107.924 119.48 108.253 119.371C109.132 119.043 110.121 118.606 111 118.278C111.879 117.95 112.209 116.966 112.868 116.31C114.186 114.998 115.505 113.905 117.153 113.031C118.252 112.484 117.592 111.282 117.592 110.298C117.592 109.533 116.933 109.751 116.494 109.751C113.197 109.642 113.197 109.642 113.088 106.253C113.088 105.051 112.978 103.848 112.978 102.646C112.978 102.427 112.978 102.208 112.978 102.099C112.978 101.553 112.868 101.006 112.099 100.569C112.209 102.099 111.989 103.411 111.769 104.832C111.659 105.816 111.44 106.69 111.44 107.674C111.44 109.205 111.33 109.423 109.791 109.423C109.682 109.423 109.462 109.423 109.352 109.423C105.836 109.205 102.32 108.658 98.9142 107.674C97.5957 107.346 96.2772 106.8 94.9588 106.472C94.2995 106.253 93.8601 105.925 94.1897 105.16C94.5193 105.051 94.8489 104.941 94.8489 104.504C94.9588 104.504 95.0687 104.504 94.9588 104.285L94.8489 104.395C94.5193 104.395 94.1897 104.504 94.0798 104.832C92.8712 105.379 91.8824 104.941 90.8935 104.176C90.2343 103.63 90.3442 103.302 90.8935 102.864C93.4206 100.459 94.8489 97.3987 95.7279 94.1192C96.6069 90.9491 97.5957 87.779 98.3648 84.4996C99.4635 79.7991 100.013 74.9893 100.452 70.1795C100.892 65.9162 100.892 61.5437 102.43 57.3897C104.408 51.924 106.276 46.349 110.67 42.1951C112.319 40.6647 114.296 39.5716 116.823 40.3368C117.263 40.4461 117.702 40.3368 117.922 40.0088C121.548 36.5108 126.052 35.4176 130.887 35.199C134.073 35.0897 137.259 35.3083 140.336 36.0735C142.973 36.6201 145.39 37.4946 147.917 38.697C148.027 38.8064 148.137 38.8064 148.247 38.9157C151.762 40.5554 154.509 43.2882 156.926 46.2397C160.992 51.2682 163.409 56.9525 164.398 63.2927C164.837 66.0255 164.837 68.8677 165.167 71.6006C165.716 76.629 166.266 81.6575 167.474 86.6859C168.683 91.7143 170.221 96.5242 172.748 101.006C173.297 101.881 173.957 102.646 174.616 103.52C174.176 103.848 173.847 103.192 173.407 103.411C173.407 103.52 173.407 103.63 173.407 103.63C174.396 104.832 174.396 104.832 172.968 105.597C170.551 106.909 167.914 107.565 165.167 108.111C159.783 109.314 154.18 109.751 148.686 110.079C148.247 110.079 147.807 110.079 147.697 110.626C147.587 111.172 147.477 111.609 148.027 111.937C150.224 113.359 151.982 115.326 153.85 117.184C154.949 118.278 156.597 118.606 158.025 119.261C163.189 121.448 168.353 123.525 173.297 126.148C177.692 128.553 181.648 131.505 184.175 135.987C185.493 138.391 185.933 141.015 185.933 143.748C186.482 150.197 186.592 156.756 186.152 163.424Z" fill="white"/>
<path opacity="0.17" d="M132.865 163.206C132.865 164.08 132.645 164.408 131.986 164.518C131.876 164.518 131.656 164.518 131.546 164.518H129.349C125.723 164.518 122.097 164.518 118.471 164.518H117.043C116.054 164.518 114.956 164.518 113.967 164.518H80.1262C57.2729 164.518 34.4196 164.518 11.6762 164.518C11.2367 164.518 10.9071 164.518 10.5774 164.408C10.0281 164.19 9.91821 163.752 9.80834 162.878C9.36885 155.007 9.47873 147.246 9.91821 139.375C10.2478 134.784 12.665 131.286 16.071 128.225C19.4771 125.165 23.4324 122.869 27.7174 121.12C28.7063 120.683 29.6951 120.355 30.5741 119.917C35.7381 117.84 40.7922 115.654 45.9561 113.468C46.5055 113.249 46.8351 112.921 47.1647 112.593C48.8128 110.626 50.7905 108.986 52.9879 107.674C53.757 107.237 54.0866 106.69 54.0866 105.707C53.9768 104.941 53.9768 104.176 54.0866 103.302C54.3064 101.115 53.757 99.0385 52.5484 97.0708C51.23 94.8846 50.9004 92.3703 50.7905 89.8561C50.7905 88.8723 50.5707 88.3257 49.5819 89.3095C49.2523 89.6375 48.9227 89.7468 48.5931 89.7468C48.2634 89.6375 47.9338 89.4188 47.7141 89.0909C47.7141 88.9816 47.6042 88.8723 47.6042 88.763C47.1647 87.5605 46.6154 86.4674 46.2857 85.2649C45.7364 83.5159 45.187 81.7669 44.9673 79.9085C44.7475 78.4874 44.1982 77.0664 43.7587 75.6453C42.9896 73.3497 43.3192 72.4752 45.6265 71.71C46.5055 71.4913 46.1759 71.0541 45.9561 70.5075C44.4179 67.2281 44.1982 63.8394 44.6377 60.3413C45.4068 53.5639 47.824 47.5516 52.9879 42.8511C56.0643 40.1182 59.5802 38.4785 63.5356 37.604C65.0738 37.2761 66.612 36.9481 68.2601 36.7295C69.4687 36.6202 70.7871 36.5109 71.9957 36.4016H72.1056C73.0944 36.4016 74.0833 36.4016 75.182 36.4016C75.6215 36.4016 76.1709 36.5109 76.6103 36.5109C76.94 36.5109 77.2696 36.6202 77.3794 36.2922C77.4893 35.855 77.0498 35.7457 76.8301 35.527C76.3906 35.0898 75.7314 35.3084 75.182 35.0898C75.2919 35.0898 75.4017 35.0898 75.5116 34.9805C77.2696 35.3084 79.467 36.0736 81.8842 37.4947C81.9941 36.9481 81.6644 36.5109 81.3348 36.0736C82.2138 36.5109 83.0928 36.9481 84.0816 37.4947C85.0705 38.3692 85.8396 39.353 86.1692 40.6648C86.3889 41.2114 86.6087 41.3207 87.158 41.3207C89.0258 41.3207 90.6739 42.0859 91.9924 43.2883C92.322 43.507 93.9701 43.6163 92.7615 44.8187C92.7615 44.8187 93.0911 45.1467 93.3108 45.3653C94.7392 46.7864 95.2885 48.6447 95.2885 50.7217C94.9589 50.5031 94.6293 50.3937 94.0799 50.1751C96.1675 53.8918 96.2774 57.6085 95.9478 61.4345C95.6181 65.2605 94.5194 68.7585 93.3108 72.3659C93.201 72.5845 93.0911 72.8031 93.3108 72.9124H93.4207C94.4096 72.3659 95.0688 72.1472 95.5083 72.2565C95.3984 72.4752 95.2885 72.6938 95.5083 72.8031H95.6181C95.728 72.6938 95.9478 72.5845 96.0576 72.5845C96.2774 72.9124 96.4971 73.5683 96.607 74.4428C96.8267 75.8639 96.7169 77.285 95.9478 78.7061C95.0688 80.2365 94.7392 81.9855 94.0799 83.7345C93.5306 85.2649 92.8714 86.9046 92.1023 88.435C91.7726 89.2002 91.3331 90.184 90.0147 89.6375C89.4653 89.3095 89.5752 89.9654 89.4653 90.2934C88.916 92.8076 88.8061 95.4311 87.158 97.6174C85.8396 99.2571 85.9494 101.115 85.9494 102.974C86.0593 104.504 85.9494 106.035 86.0593 107.565C86.0593 108.002 86.0593 108.549 86.7185 108.767C89.2456 109.642 91.2233 111.5 92.8714 113.468C93.9701 114.78 95.5083 114.889 96.9366 115.436C100.343 116.857 101.881 118.934 105.287 120.464C105.616 120.355 106.825 119.808 107.155 119.699C109.572 120.683 114.077 121.666 118.252 123.853C123.306 126.476 127.261 130.193 130.557 134.566C132.096 136.533 132.755 138.829 132.755 141.452C132.755 148.776 132.755 155.991 132.865 163.206Z" fill="#020202"/>
<path d="M130.667 163.206C130.667 164.08 130.447 164.408 129.788 164.518C129.678 164.518 129.568 164.518 129.568 164.518H129.459C126.932 164.518 124.295 164.518 121.768 164.518H118.581C118.142 164.518 117.812 164.518 117.373 164.518H117.043C116.054 164.518 114.956 164.518 113.967 164.518H80.1262C57.2728 164.518 34.4195 164.518 11.6761 164.518H9.47864C9.14903 164.518 8.92928 164.518 8.70954 164.408C8.59967 164.408 8.4898 164.408 8.37993 164.299C8.37993 164.299 8.27005 164.299 8.27005 164.19C8.27005 164.19 8.16018 164.19 8.16018 164.08C7.83057 163.862 7.7207 163.425 7.7207 162.659C7.28121 154.789 7.39108 147.027 7.83057 139.157C8.16018 134.566 10.5774 131.068 13.9834 128.007C16.5104 125.711 19.477 123.853 22.5534 122.322C23.5422 121.776 24.6409 121.339 25.7397 120.901C26.7285 120.464 27.7174 120.136 28.5963 119.699C33.7603 117.622 38.8144 115.436 43.9784 113.249C44.5277 113.031 44.8573 112.703 45.187 112.375C46.835 110.407 48.8127 108.768 51.0102 107.456C51.7793 107.019 52.1089 106.472 52.1089 105.488C51.999 104.723 51.999 103.958 52.1089 103.083C52.3286 100.897 51.7793 98.82 50.5707 96.8523C49.2522 94.6661 48.9226 92.1518 48.8127 89.6376C48.8127 89.5283 48.8127 89.5283 48.8127 89.5283C48.8127 88.7631 48.593 88.3258 47.9337 88.8724C47.8239 88.9817 47.714 89.091 47.6041 89.2004C46.835 89.8562 46.0659 89.6376 45.6264 88.6538C45.187 87.4513 44.6376 86.3582 44.308 85.1557C43.7586 83.4067 43.2093 81.6577 42.9895 79.7994C42.7698 78.3783 42.2204 76.9572 41.7809 75.5361C41.0118 73.2405 41.3414 72.366 43.6488 71.6008C44.5277 71.3822 44.1981 70.9449 43.9784 70.3984C43.0994 68.54 42.6599 66.5724 42.55 64.6047C42.4402 63.1836 42.4402 61.6532 42.6599 60.1228C43.429 54.0013 45.4067 48.5356 49.5818 44.163C50.0213 43.6164 50.5707 43.1792 51.12 42.6326L61.6677 37.3855C63.2059 37.0576 64.7441 36.7296 66.3922 36.511C68.3699 36.2924 70.3476 36.1831 72.3253 36.1831H72.4351C73.2042 36.1831 73.9733 36.1831 74.7425 36.2924C74.9622 36.2924 75.2918 36.4017 75.5115 36.1831C75.5115 36.1831 75.5116 36.0738 75.6214 36.0738C75.7313 35.6365 75.2918 35.5272 75.0721 35.3086C74.6326 34.8713 73.9734 35.0899 73.424 34.8713C74.1931 34.6527 74.9622 34.6527 75.951 34.762C77.709 35.0899 79.9064 35.8551 82.3236 37.2762C82.4335 36.7296 82.1039 36.2924 81.7742 35.8551C81.5545 35.5272 81.3348 35.3086 81.2249 34.8713L81.3348 34.9806C82.5433 35.7458 83.6421 36.511 84.521 37.2762C85.5099 38.1507 86.279 39.1345 86.6086 40.4463C86.8283 40.9929 87.0481 41.1022 87.5974 41.1022C89.4653 41.1022 91.1133 41.8674 92.4318 43.0699C92.7614 43.2885 94.4095 43.3978 93.2009 44.6002C93.2009 44.6002 93.5305 44.9282 93.7503 45.1468C95.1786 46.5679 95.728 48.4262 95.728 50.5032C95.3983 50.2846 95.0687 50.1753 94.5194 49.9566C96.6069 53.6733 96.7168 57.39 96.3872 61.216C96.0576 65.042 94.9589 68.54 93.7503 72.1474C93.6404 72.366 93.5305 72.5846 93.7503 72.6939H93.8601C94.849 72.1474 95.5082 71.9287 95.9477 72.0381C96.1674 72.1474 96.2773 72.2567 96.4971 72.4753C96.7168 72.8033 96.9365 73.4591 97.0464 74.3337C97.2662 75.7547 97.1563 77.1758 96.3872 78.5969C95.5082 80.1273 95.1786 81.8763 94.5194 83.6253C93.97 85.1557 93.3108 86.7955 92.5417 88.3258C92.2121 89.091 91.7726 90.0749 90.4541 89.5283C89.9048 89.2004 90.0146 89.8562 89.9048 90.1842C89.3554 92.6984 89.2455 95.3219 87.5974 97.5082C86.279 99.1479 86.3889 101.006 86.3889 102.865C86.4987 104.395 86.3889 105.925 86.4987 107.456C86.4987 107.893 86.4987 108.44 87.158 108.658C89.685 109.533 91.6627 111.391 93.3108 113.359C94.4095 114.671 95.9477 114.78 97.376 115.326C100.782 116.747 104.298 118.059 107.704 119.59C110.671 120.901 113.637 122.213 116.604 123.744C121.658 126.367 125.613 130.084 128.909 134.456C130.447 136.424 131.107 138.72 131.107 141.343C130.557 148.776 130.557 155.991 130.667 163.206Z" fill="white"/>
</g>
<defs>
<clipPath id="clip0">
<rect width="197" height="196" fill="white" transform="translate(0.579102)"/>
</clipPath>
</defs>
</svg>
