<svg width="198" height="196" viewBox="0 0 198 196" fill="none" xmlns="http://www.w3.org/2000/svg">
<g clip-path="url(#clip0)">
<path d="M197.189 0H0.188965V196H197.189V0Z" fill="#69C1B1"/>
<path d="M197.189 84.1718V196H107.534L35.6775 162.987L35.7874 162.659L69.518 89.8562C69.7377 89.8562 69.9575 89.8562 70.1772 89.9655C70.7266 90.0748 71.1661 89.6375 71.1661 89.091C71.1661 88.4351 70.8364 88.2164 70.2871 88.2164L94.1292 36.8389L95.6675 37.6041L197.189 84.1718Z" fill="#53998E"/>
<path d="M164.557 102.099C163.129 105.925 158.404 108.986 153.68 108.111C150.823 107.565 150.274 108.658 149.724 110.844C148.626 115.108 147.527 119.371 144.341 122.76C142.363 124.946 139.836 126.258 137.199 127.351C135.221 128.116 133.683 129.428 134.013 131.395C134.342 133.035 136.43 132.926 137.968 132.926C143.572 133.144 148.955 134.675 154.449 135.44C158.734 135.987 161.92 140.031 162.14 144.185C162.47 148.23 161.041 151.837 158.954 155.117C155.877 159.926 151.043 161.129 145.439 158.833C139.396 156.21 133.354 153.477 127.311 150.853C124.674 149.651 122.586 150.963 123.135 153.586C123.795 156.647 123.795 159.598 123.685 162.659H35.5677C34.5788 161.785 34.0295 160.582 33.6998 159.27C31.832 151.728 31.1728 144.076 34.0295 136.533C36.0071 131.395 39.4132 127.569 46.0055 128.444C38.8638 124.399 37.875 120.792 41.7205 113.796C42.0501 113.14 42.3797 112.484 42.8192 111.937C46.7746 107.346 47.2141 102.536 44.687 97.1801C43.5883 94.7752 43.5883 92.261 45.3462 89.7467C49.9609 83.1879 52.8175 82.6413 59.0802 87.6698C62.3764 90.2933 66.112 89.4188 69.7378 89.856C69.9575 89.856 70.1773 89.8561 70.397 89.9654C70.9464 90.0747 71.3858 89.6374 71.3858 89.0908C71.3858 88.435 71.0562 88.2163 70.5069 88.2163C70.397 88.2163 70.1773 88.2163 70.0674 88.107C67.3206 87.7791 64.5738 87.1232 62.4862 85.3742C59.6296 82.9693 57.7617 80.0178 57.4321 76.1918C56.5532 64.0579 59.1901 52.58 65.7824 42.5231C73.2537 31.2637 86.1087 31.0451 95.8872 37.4946C97.6452 38.5878 99.2933 40.0089 100.722 41.5393C109.072 50.2844 111.709 61.5437 109.511 72.9124C108.303 79.1433 107.314 86.4673 101.051 90.9492C100.172 91.6051 99.9525 92.8075 100.831 93.7914C101.601 94.5566 102.26 94.3379 103.029 93.682C106.435 90.6212 110.5 88.8722 114.785 87.3418C115.994 86.9046 117.312 86.5766 115.884 84.8276C112.588 80.5644 112.698 76.1918 115.444 71.8192C117.642 68.3212 120.938 66.9001 125.113 67.6653C130.936 68.6491 134.782 72.1472 135.441 77.8315C135.771 80.783 136.979 81.7668 139.506 82.4227C142.583 83.2972 145.769 84.3903 147.966 86.9046C149.065 88.2163 149.944 87.4511 150.933 87.2325C155.438 86.2487 159.503 87.0139 162.579 90.6212C165.436 94.1193 166.205 97.9453 164.557 102.099Z" fill="white"/>
</g>
<defs>
<clipPath id="clip0">
<rect width="197" height="196" fill="white" transform="translate(0.188965)"/>
</clipPath>
</defs>
</svg>
