<svg width="197" height="196" viewBox="0 0 197 196" fill="none" xmlns="http://www.w3.org/2000/svg">
<g clip-path="url(#clip0)">
<path d="M197 0H0V196H197V0Z" fill="#62AEC8"/>
<path d="M197 72.3658V196.109H112.179L37.7959 162.878L37.9058 162.659L58.0123 118.059C63.1763 115.982 68.2304 113.796 73.3943 111.61C73.9437 111.391 74.2733 111.063 74.6029 110.735C76.251 108.767 78.2287 107.128 80.4261 105.816C81.1952 105.379 81.5248 104.832 81.5248 103.848C81.415 103.083 81.415 102.318 81.5248 101.443C81.7446 99.2571 81.1952 97.1801 79.9866 95.2125C78.6682 93.0262 78.3386 90.512 78.2287 87.9977C78.2287 87.1232 78.0089 86.4673 77.0201 87.4512C76.251 88.1071 75.4819 87.8884 75.0424 86.9046C74.6029 85.7021 74.0536 84.609 73.7239 83.4066L95.5884 34.8712C98.3352 34.5432 101.192 34.4339 103.939 34.6525C104.268 34.6525 104.598 34.7618 104.708 34.4339C104.818 33.9966 104.378 33.8873 104.158 33.6687C103.719 33.2314 103.06 33.4501 102.51 33.2314C104.598 32.6849 107.674 33.5594 111.41 35.7457C111.52 34.7618 110.531 34.3246 110.201 33.3408L110.311 33.4501L197 72.3658Z" fill="#4E8BA0"/>
<path d="M160.193 161.347C160.193 162.331 159.863 162.659 158.875 162.659C149.096 162.659 139.317 162.659 129.649 162.659C99.434 162.659 69.3291 162.659 39.1144 162.659C38.6749 162.659 38.2354 162.659 38.0157 162.55C37.5762 162.331 37.3564 161.894 37.2466 161.019C36.8071 153.149 36.917 145.388 37.3564 137.517C37.6861 132.926 40.1032 129.428 43.5093 126.367C46.9153 123.306 50.8707 121.011 55.1557 119.262C56.1445 118.824 57.1333 118.496 58.0123 118.059C63.1763 115.982 68.2304 113.796 73.3944 111.61C73.9437 111.391 74.2733 111.063 74.6029 110.735C76.251 108.767 78.2287 107.128 80.4261 105.816C81.1952 105.379 81.5249 104.832 81.5249 103.848C81.415 103.083 81.415 102.318 81.5249 101.443C81.7446 99.257 81.1953 97.1801 79.9867 95.2124C78.6682 93.0261 78.3386 90.5119 78.2287 87.9977C78.2287 87.1232 78.009 86.4673 77.0201 87.4511C76.251 88.107 75.4819 87.8884 75.0424 86.9046C74.603 85.7021 74.0536 84.609 73.724 83.4065C73.1746 81.6575 72.6253 79.9085 72.4055 78.0501C72.1858 76.629 71.6364 75.208 71.1969 73.7869C70.4278 71.4913 70.7574 70.6168 73.0647 69.8516C73.9437 69.633 73.6141 69.1957 73.3944 68.6491C71.8562 65.3697 71.6364 61.981 72.0759 58.3736C72.845 51.5961 75.2622 45.5839 80.4261 40.8834C83.5026 38.1505 87.0185 36.5108 90.9738 35.6363C92.512 35.3084 94.0502 34.9804 95.6983 34.7618C98.4451 34.4338 101.302 34.3245 104.049 34.5432C104.378 34.5432 104.708 34.6525 104.818 34.3245C104.928 33.8873 104.488 33.778 104.268 33.5593C103.829 33.1221 103.17 33.3407 102.62 33.1221C104.708 32.5755 107.784 33.45 111.52 35.6363C111.63 34.6525 110.641 34.2152 110.311 33.2314L110.421 33.3407C112.838 34.8711 114.926 36.2922 115.805 38.9157C116.025 39.4623 116.354 39.5716 116.794 39.5716C118.662 39.5716 120.31 40.3368 121.628 41.5393C121.958 41.7579 123.606 41.8672 122.397 43.0697C122.397 43.0697 122.727 43.3976 122.946 43.6162C124.375 45.0373 124.924 46.8956 124.924 48.9726C124.595 48.754 124.265 48.6447 123.716 48.426C125.803 52.1427 125.913 55.8594 125.583 59.6854C125.254 63.5114 124.155 67.0094 122.946 70.6168C122.837 70.8354 122.727 71.054 122.946 71.1633H123.056C125.254 69.9609 125.913 70.2888 126.243 72.8031C126.462 74.2241 126.353 75.6452 125.583 77.0663C124.704 78.5967 124.375 80.3457 123.716 82.0947C123.166 83.6251 122.507 85.2649 121.738 86.7953C121.408 87.5604 120.969 88.5443 119.65 87.9977C119.101 87.6698 119.211 88.3256 119.101 88.6536C118.552 91.1678 118.442 93.7913 116.794 95.9776C115.475 97.6173 115.585 99.4757 115.585 101.334C115.695 102.864 115.585 104.395 115.695 105.925C115.695 106.362 115.695 106.909 116.354 107.128C118.881 108.002 120.859 109.861 122.507 111.828C123.606 113.14 125.144 113.249 126.572 113.905C133.055 116.529 139.537 119.152 145.8 122.322C150.854 124.946 154.809 128.663 158.105 133.035C159.644 135.003 160.303 137.298 160.303 139.922C160.083 146.918 160.083 154.133 160.193 161.347Z" fill="white"/>
</g>
<defs>
<clipPath id="clip0">
<rect width="197" height="196" fill="white"/>
</clipPath>
</defs>
</svg>
