<svg width="198" height="196" viewBox="0 0 198 196" fill="none" xmlns="http://www.w3.org/2000/svg">
<g clip-path="url(#clip0)">
<path d="M197.793 0H0.792725V196H197.793V0Z" fill="#A0A09F"/>
<path d="M197.793 64.2389V196.109H98.9082L51.8831 169.079L51.2239 168.75C48.1475 166.999 47.1586 163.169 48.9166 160.105L56.1681 147.629V157.697H140.33V84.9223H92.4258L98.249 74.8542L100.007 71.79L104.622 63.8011C116.927 63.6917 129.013 58.001 133.408 50.1216C135.496 46.4008 135.386 42.68 133.188 38.9592C131.76 36.661 129.782 35.5666 127.035 35.5666C124.838 35.5666 122.311 36.3327 119.674 37.8648L123.41 31.4081C125.607 27.5778 130.332 26.0457 134.287 27.6872H134.397C134.726 27.7967 135.056 28.0156 135.386 28.125L197.793 64.2389Z" fill="#7C7C7C"/>
<path d="M141.209 34.0346C139.451 31.1893 137.143 29.11 134.287 27.7968C134.287 27.7968 134.287 27.7968 134.177 27.7968C131.979 26.8118 129.562 26.2646 126.925 26.2646C113.961 26.2646 102.973 37.646 96.8205 51.6538C90.5579 37.5366 79.5707 26.2646 66.7157 26.2646C60.6728 26.2646 55.7285 29.11 52.5423 34.144C48.477 40.7102 48.2573 48.0424 52.1028 54.8275C56.6075 62.9257 66.3861 69.273 77.8127 71.8995C81.4385 72.775 85.1741 73.2127 89.0196 73.3222C89.0196 73.4316 88.9098 73.6505 88.9098 73.7599C92.2059 74.1976 95.1725 74.8543 98.3587 75.0731C98.4686 75.0731 98.4686 75.0731 98.5785 75.0731C98.9081 74.3071 99.2377 73.6505 99.4575 73.2127C100.996 73.3222 102.644 73.4316 104.182 73.4316C108.247 73.4316 112.312 72.8844 116.158 72.0089C127.475 69.3825 137.253 63.0352 141.758 54.9369C145.494 48.0424 145.274 40.7102 141.209 34.0346ZM60.453 50.1217C58.3655 46.4009 58.4753 42.6801 60.6728 38.9592C62.1011 36.6611 64.0788 35.5667 66.8256 35.5667C74.2968 35.5667 86.4926 44.5405 91.327 63.8012C78.3621 64.3484 65.0676 58.4389 60.453 50.1217ZM133.518 50.1217C129.123 57.8917 117.037 63.6918 104.731 63.8012C104.072 63.8012 103.303 63.8012 102.644 63.8012C106.05 50.1217 113.301 41.5857 119.784 37.8649C122.421 36.3328 124.948 35.5667 127.145 35.5667C129.892 35.5667 131.87 36.6611 133.298 38.9592C135.495 42.6801 135.605 46.4009 133.518 50.1217Z" fill="white"/>
<path d="M140.22 71.79H56.0582C48.3672 71.79 42.1045 78.0279 42.1045 85.6884V155.728C42.1045 161.856 46.1697 167.109 51.7732 168.969C53.0917 169.407 54.52 169.626 55.9483 169.626H140C147.691 169.626 153.954 163.388 153.954 155.728V85.6884C154.064 78.0279 147.801 71.79 140.22 71.79ZM140.33 157.478H56.1681V84.9224H140.33V157.478Z" fill="white"/>
<path d="M93.7961 135.873C93.3161 135.873 92.8961 135.723 92.5361 135.423C92.1761 135.063 91.9961 134.643 91.9961 134.163V132.093C92.4161 129.573 93.3461 127.323 94.7861 125.343C96.2861 123.363 98.3261 121.113 100.906 118.593C102.826 116.673 104.266 115.113 105.226 113.913C106.186 112.653 106.696 111.393 106.756 110.133C106.936 108.273 106.306 106.803 104.866 105.723C103.486 104.583 101.806 104.013 99.8261 104.013C95.1461 104.013 92.2661 106.263 91.1861 110.763C90.7061 112.203 89.7761 112.923 88.3961 112.923H77.4161C76.7561 112.923 76.2161 112.713 75.7961 112.293C75.4361 111.813 75.2561 111.213 75.2561 110.493C75.3761 107.193 76.4261 104.073 78.4061 101.133C80.3861 98.1326 83.2961 95.7026 87.1361 93.8426C90.9761 91.9826 95.5661 91.0526 100.906 91.0526C106.366 91.0526 110.806 91.9226 114.226 93.6626C117.646 95.3426 120.076 97.4426 121.516 99.9626C123.016 102.423 123.766 104.943 123.766 107.523C123.766 110.463 123.076 113.043 121.696 115.263C120.376 117.483 118.396 120.033 115.756 122.913C114.136 124.653 112.846 126.123 111.886 127.323C110.986 128.523 110.296 129.783 109.816 131.103C109.636 131.643 109.426 132.453 109.186 133.533C108.706 134.373 108.286 134.973 107.926 135.333C107.566 135.693 107.056 135.873 106.396 135.873H93.7961ZM93.9761 154.953C93.3161 154.953 92.7761 154.743 92.3561 154.323C91.9361 153.903 91.7261 153.363 91.7261 152.703V142.443C91.7261 141.783 91.9361 141.243 92.3561 140.823C92.7761 140.403 93.3161 140.193 93.9761 140.193H105.496C106.156 140.193 106.696 140.403 107.116 140.823C107.596 141.243 107.836 141.783 107.836 142.443V152.703C107.836 153.363 107.596 153.903 107.116 154.323C106.696 154.743 106.156 154.953 105.496 154.953H93.9761Z" fill="white"/>
</g>
<defs>
<clipPath id="clip0">
<rect width="197" height="196" fill="white" transform="translate(0.792725)"/>
</clipPath>
</defs>
</svg>
