<svg width="198" height="197" viewBox="0 0 198 197" fill="none" xmlns="http://www.w3.org/2000/svg">
<g clip-path="url(#clip0)">
<path d="M197.55 0.874512H0.329834V197.093H197.55V0.874512Z" fill="#F8B796"/>
<path d="M74.8228 109.097C74.7129 109.097 74.4932 109.097 74.3833 109.097L76.9104 104.396C76.8005 105.38 76.5808 106.364 76.5808 107.348C76.4709 108.987 76.361 109.206 74.8228 109.097Z" fill="#53998E"/>
<path d="M197.55 78.598V197.094H98.4454L42.9602 167.142L42.7405 167.033L67.132 122.324C70.0985 121.012 73.0651 119.809 76.0316 118.607C76.9106 118.279 77.3501 117.295 78.0093 116.53C79.4376 115.218 80.7561 113.906 82.514 113.032C83.7226 112.376 82.9535 111.174 82.9535 110.19C82.9535 109.425 82.2943 109.643 81.7449 109.534C78.229 109.315 78.229 109.315 78.1192 105.926C78.1192 104.615 78.0093 103.412 78.0093 102.1L115.036 34.3258L115.146 34.1072L197.55 78.598Z" fill="#EFA17F"/>
<path d="M155.249 166.049C155.139 167.033 154.809 167.252 153.93 167.252C135.362 167.252 116.794 167.252 98.1157 167.252C96.0281 167.252 93.9405 167.252 91.9628 167.252H43.9489C43.5094 167.252 43.1798 167.252 42.96 167.143C42.8502 167.143 42.8502 167.033 42.7403 166.924C42.5206 166.705 42.5206 166.377 42.5206 165.831C42.5206 159.272 42.7403 152.604 42.5206 146.045C42.4107 141.672 44.0588 138.393 46.8056 135.223C50.8708 130.522 56.0348 127.462 61.5284 124.947C63.3962 124.073 65.264 123.198 67.1318 122.324C70.0984 121.012 73.0649 119.81 76.0314 118.607C76.9104 118.279 77.3499 117.295 78.0091 116.53C79.4375 115.218 80.7559 113.907 82.5139 113.032C83.7225 112.376 82.9534 111.174 82.9534 110.19C82.9534 109.425 82.2941 109.643 81.7448 109.534C78.2289 109.315 78.2289 109.315 78.119 105.927C78.119 104.615 78.0091 103.412 78.0091 102.101C78.0091 101.882 78.0091 101.663 78.0091 101.445C78.0091 100.898 77.8993 100.352 77.1302 99.8051C77.24 101.335 77.0203 102.866 76.8005 104.287C76.6907 105.271 76.4709 106.255 76.4709 107.238C76.4709 108.878 76.361 109.097 74.713 109.097C74.6031 109.097 74.3834 109.097 74.2735 109.097C70.5378 108.878 66.9121 108.332 63.2863 107.238C61.858 106.801 60.5395 106.364 59.1112 105.927C58.3421 105.708 57.9026 105.38 58.3421 104.506C58.6717 104.396 59.0013 104.287 59.0013 103.85C59.1112 103.85 59.2211 103.85 59.1112 103.631L59.0013 103.74C58.6717 103.74 58.3421 103.85 58.1223 104.287C56.8039 104.943 55.815 104.396 54.8262 103.522C54.0571 102.975 54.2768 102.647 54.8262 102.101C57.573 99.5864 59.0013 96.307 59.9902 92.809C60.979 89.4202 61.9679 86.1408 62.737 82.7521C63.8357 77.8329 64.4949 72.6952 64.9344 67.6667C65.3739 63.0755 65.4837 58.4843 67.0219 54.1118C69.1095 48.3181 71.0872 42.5245 75.8117 38.1519C77.5696 36.5122 79.6572 35.4191 82.2941 36.1843C82.7336 36.2936 83.1731 36.1843 83.5027 35.8563C87.3482 32.1397 92.0727 30.9372 97.2367 30.7186C103.499 30.5 109.542 31.7024 115.256 34.3259C115.366 34.4353 115.475 34.4353 115.695 34.5446C119.321 36.2936 122.287 39.1358 124.814 42.3059C129.099 47.5529 131.627 53.6745 132.725 60.3427C133.165 63.1849 133.275 66.1363 133.604 69.0878C134.154 74.4442 134.813 79.8006 136.021 84.9383C137.23 90.1854 138.878 95.3232 141.625 100.133C142.174 101.117 142.833 101.882 143.603 102.757C143.163 103.084 142.724 102.429 142.394 102.647C142.394 102.757 142.394 102.866 142.394 102.866C143.383 104.068 143.383 104.178 141.954 104.943C139.318 106.255 136.571 107.02 133.714 107.676C128.001 108.878 122.178 109.315 116.354 109.753C115.915 109.753 115.475 109.753 115.366 110.299C115.256 110.846 115.146 111.392 115.695 111.72C118.002 113.251 119.87 115.328 121.848 117.186C123.057 118.279 124.814 118.716 126.243 119.372C131.627 121.777 137.12 123.854 142.394 126.587C147.118 129.101 151.184 132.271 153.821 136.972C155.249 139.486 155.688 142.328 155.688 145.17C155.579 152.166 155.688 159.053 155.249 166.049Z" fill="white"/>
</g>
<defs>
<clipPath id="clip0">
<rect width="197" height="196" fill="white" transform="translate(0.439697 0.985107)"/>
</clipPath>
</defs>
</svg>
